<?xml version="1.0" standalone="no"?>
<!DOCTYPE svg PUBLIC "-//W3C//DTD SVG 20010904//EN"
 "http://www.w3.org/TR/2001/REC-SVG-20010904/DTD/svg10.dtd">
<svg version="1.0" xmlns="http://www.w3.org/2000/svg"
 width="618.000000pt" height="343.000000pt" viewBox="0 0 618.000000 343.000000"
 preserveAspectRatio="xMidYMid meet">

<g transform="translate(0.000000,343.000000) scale(0.100000,-0.100000)"
fill="#000000" stroke="none">
<path d="M0 1715 l0 -1715 3090 0 3090 0 0 1715 0 1715 -3090 0 -3090 0 0
-1715z m2000 665 c189 -327 405 -702 482 -834 76 -131 138 -240 138 -242 0 -2
-108 -4 -240 -4 l-240 0 -16 26 c-10 14 -121 206 -248 426 -127 220 -236 401
-241 400 -5 0 -184 -303 -398 -673 -213 -371 -442 -767 -509 -881 l-120 -208
-243 0 -243 0 400 693 c220 380 560 970 756 1309 299 519 358 614 367 600 7
-9 166 -285 355 -612z m3500 -532 c40 -68 79 -131 85 -141 11 -15 23 1 99 127
l86 145 45 -26 c25 -13 47 -28 50 -32 2 -5 -43 -85 -100 -180 l-105 -172 0
-125 0 -124 -65 0 -65 0 0 123 0 122 -109 177 -109 178 51 29 c28 16 54 28 58
26 3 -3 39 -60 79 -127z m-2406 93 c68 -33 106 -95 106 -170 -1 -134 -90 -215
-246 -225 l-69 -5 -3 -110 -3 -111 -59 0 -60 0 0 319 c0 246 3 321 13 325 6 3
71 4 142 3 114 -2 136 -5 179 -26z m508 -4 c63 -37 91 -78 96 -143 6 -78 -5
-121 -44 -163 -44 -50 -115 -80 -201 -85 l-68 -5 0 -110 0 -111 -62 0 -63 0 0
319 c0 296 1 320 18 325 9 2 76 4 147 3 122 -2 133 -4 177 -30z m575 -272 c67
-165 122 -304 122 -308 1 -8 -83 -47 -103 -47 -7 0 -27 38 -45 85 l-32 85
-127 0 -127 0 -33 -85 c-19 -47 -37 -85 -42 -85 -12 0 -100 39 -100 44 0 4
181 452 236 584 13 33 14 33 71 30 l58 -3 122 -300z m515 273 c110 -65 117
-215 13 -287 l-34 -23 23 -32 c27 -34 116 -213 116 -231 0 -6 -24 -23 -52 -37
l-53 -26 -60 121 c-63 127 -86 152 -150 159 l-30 3 -3 -132 -3 -133 -59 0 -60
0 0 319 c0 296 1 320 18 325 9 2 78 4 152 3 127 -2 138 -4 182 -29z m306 -90
l3 -117 111 119 c61 66 114 120 117 120 13 0 81 -62 81 -73 0 -6 -52 -64 -116
-128 l-116 -116 139 -131 138 -131 -45 -46 -44 -45 -133 132 -133 133 0 -123
0 -122 -65 0 -65 0 0 325 0 326 63 -3 62 -3 3 -117z m752 -788 l0 -150 -1450
-2 -1449 -3 40 -70 c23 -38 90 -154 150 -258 l108 -187 -243 0 -244 0 -141
244 c-78 135 -144 252 -147 260 -5 14 -81 16 -670 18 l-664 3 43 75 c24 41 63
108 86 148 l42 72 2269 0 2270 0 0 -150z"/>
<path d="M2880 1760 l0 -100 61 0 c68 0 111 19 128 57 37 81 -21 143 -133 143
l-56 0 0 -100z"/>
<path d="M3380 1760 l0 -100 60 0 c95 0 140 32 140 100 0 67 -48 100 -146 100
l-54 0 0 -100z"/>
<path d="M3980 1775 c-7 -17 -22 -57 -35 -90 -13 -33 -26 -68 -30 -77 -6 -16
1 -18 74 -18 45 0 81 3 81 8 0 4 -18 52 -39 107 -39 98 -40 99 -51 70z"/>
<path d="M4460 1780 l0 -82 75 4 c86 4 116 23 117 77 2 54 -29 75 -117 79
l-75 4 0 -82z"/>
</g>
</svg>
