<?xml version="1.0" standalone="no"?>
<!DOCTYPE svg PUBLIC "-//W3C//DTD SVG 20010904//EN"
 "http://www.w3.org/TR/2001/REC-SVG-20010904/DTD/svg10.dtd">
<svg version="1.0" xmlns="http://www.w3.org/2000/svg"
 width="800.000000pt" height="2000.000000pt" viewBox="0 0 800.000000 2000.000000"
 preserveAspectRatio="xMidYMid meet">

<g transform="translate(0.000000,2000.000000) scale(0.100000,-0.100000)"
fill="#000000" stroke="none">
<path d="M0 10000 l0 -10000 4000 0 4000 0 0 10000 0 10000 -4000 0 -4000 0 0
-10000z m2954 286 c333 -577 606 -1052 606 -1057 0 -5 -132 -8 -306 -7 l-306
3 -316 548 c-259 449 -318 545 -328 533 -6 -9 -301 -518 -655 -1131 l-644
-1115 -307 0 c-170 0 -308 2 -308 4 0 3 1707 2959 1882 3260 l40 69 18 -29
c10 -16 291 -501 624 -1078z m1182 -237 c115 -43 169 -119 169 -239 0 -91 -22
-138 -90 -198 -59 -52 -118 -72 -227 -79 l-88 -6 0 -143 0 -144 -80 0 -80 0 0
410 0 410 23 5 c90 20 299 12 373 -16z m636 1 c114 -42 172 -124 172 -240 -1
-76 -18 -123 -68 -177 -54 -60 -139 -95 -248 -101 l-88 -5 0 -143 0 -144 -80
0 -80 0 0 410 0 410 23 5 c88 20 299 12 369 -15z m1393 -1 c56 -21 117 -78
135 -125 6 -14 10 -53 10 -87 0 -78 -28 -130 -92 -173 l-47 -32 26 -23 c20
-19 163 -294 163 -314 0 -6 -141 -77 -145 -73 -2 2 -29 60 -61 128 -31 69 -68
140 -82 159 -27 36 -91 70 -134 71 l-28 0 0 -170 0 -170 -80 0 -80 0 0 410 0
410 23 5 c89 20 320 11 392 -16z m775 -15 c28 -26 50 -51 50 -57 0 -6 -66 -77
-147 -160 l-146 -149 174 -168 174 -168 -56 -57 -55 -56 -172 166 -172 167 0
-156 0 -156 -80 0 -80 0 0 415 0 415 80 0 79 0 3 -152 3 -152 145 157 c80 86
146 157 148 157 2 0 25 -21 52 -46z m297 -129 c57 -93 107 -173 111 -177 5 -5
57 72 117 172 59 99 110 180 112 180 17 0 123 -74 120 -84 -3 -6 -64 -108
-136 -226 l-131 -214 0 -158 0 -158 -80 0 -80 0 0 156 0 157 -127 206 c-69
113 -132 215 -140 226 -12 19 -8 24 50 58 34 20 66 35 72 34 5 -2 56 -79 112
-172z m-1691 -225 c85 -212 153 -389 151 -393 -3 -10 -113 -57 -131 -57 -6 0
-31 50 -55 110 l-43 110 -160 -2 -161 -3 -41 -108 c-46 -121 -39 -118 -135
-74 l-50 22 153 375 c84 206 155 383 159 393 6 15 17 17 83 15 l76 -3 154
-385z m2004 -770 l0 -190 -1844 -2 -1845 -3 165 -285 c91 -157 177 -304 190
-328 l25 -42 -311 2 -311 3 -188 325 -188 325 -842 3 c-490 1 -841 6 -841 11
0 5 22 47 49 93 26 45 74 127 105 181 l57 97 2889 0 2890 0 0 -190z"/>
<path d="M3900 9800 l0 -130 51 0 c75 0 133 18 166 52 24 25 28 38 28 83 0 88
-51 125 -175 125 l-70 0 0 -130z"/>
<path d="M4540 9801 l0 -131 53 0 c144 0 226 81 184 183 -23 54 -56 70 -153
75 l-84 5 0 -132z"/>
<path d="M5910 9830 l0 -100 75 0 c118 0 165 28 165 100 0 72 -47 100 -165
100 l-75 0 0 -100z"/>
<path d="M5258 9726 c-27 -67 -48 -126 -48 -129 0 -4 45 -7 101 -7 77 0 100 3
97 13 -53 142 -94 247 -98 247 -3 0 -26 -56 -52 -124z"/>
</g>
</svg>
